<svg width="64" height="66" viewBox="0 0 64 66" fill="none" xmlns="http://www.w3.org/2000/svg">
<g clip-path="url(#clip0_731_2)">
<path d="M63.9406 5.03567C63.5545 2.47314 61.535 0.417156 58.981 0.0595937C58.7137 0.0297968 58.4167 0 58.1197 0H13.691C13.5425 0 13.394 0 13.2455 0C11.3745 0.0595937 9.59258 0.446953 7.98886 1.07269C5.79118 1.96659 3.92019 3.33725 2.52436 5.03567C1.21763 6.64469 0.356381 8.5219 0.0890951 10.5481C0.0296984 11.0546 0 11.5314 0 12.0379V57.9549C0 62.3946 3.5935 66 7.98886 66H50.2794C51.4079 66 52.5067 65.8808 53.5759 65.6424C55.5954 65.1955 57.407 64.391 58.9513 63.2587C60.8817 61.888 62.3666 60.0406 63.1981 57.9549C63.703 56.7034 63.9703 55.3625 63.9703 53.9621V5.89977C64 5.60181 63.9703 5.33363 63.9406 5.03567ZM58.9513 53.9621C58.9513 56.0479 57.3773 57.7463 55.3578 57.9549C55.2093 57.9846 55.0905 57.9847 54.942 57.9847C54.7935 57.9847 54.6747 57.9846 54.5262 57.9549H12.4139C12.2654 57.9846 12.1466 57.9847 11.9981 57.9847C11.8497 57.9847 11.7309 57.9846 11.5824 57.9549C9.71137 57.7761 8.19675 56.2564 8.01856 54.3792C8.01856 54.2302 7.98886 54.1111 7.98886 53.9621C7.98886 53.8131 7.98886 53.6939 8.01856 53.5449V9.47539C8.01856 9.35621 7.98886 9.20722 7.98886 9.05824C7.98886 8.90925 7.98886 8.79007 8.01856 8.64108C8.22645 6.6149 9.94896 5.03567 11.9981 5.03567H54.942C57.1694 5.03567 58.9513 6.85327 58.9513 9.05824V53.9621Z" fill="#30566C"/>
<path d="M30.7081 49.4627V50.4162C30.7081 51.5485 29.7875 52.4722 28.6589 52.4722H22.452C21.3234 52.4722 20.4028 51.5485 20.4028 50.4162V49.4627C20.4028 48.3305 21.3234 47.4068 22.452 47.4068H28.6292C29.7875 47.4068 30.7081 48.3305 30.7081 49.4627Z" fill="#30566C"/>
<path opacity="0.5" d="M18.3536 49.4627V50.4162C18.3536 51.5485 17.433 52.4722 16.3044 52.4722H15.2947C14.1661 52.4722 13.2455 51.5485 13.2455 50.4162V49.4627C13.2455 48.3305 14.1661 47.4068 15.2947 47.4068H16.3044C17.433 47.4068 18.3536 48.3305 18.3536 49.4627Z" fill="#30566C"/>
<path d="M53.5759 37.6036V38.5571C53.5759 39.6894 52.6552 40.6131 51.5267 40.6131H45.9434C44.8149 40.6131 43.8942 39.6894 43.8942 38.5571V37.6036C43.8942 36.4713 44.8149 35.5476 45.9434 35.5476H51.5267C52.6552 35.5476 53.5759 36.4713 53.5759 37.6036Z" fill="#30566C"/>
<path opacity="0.7" d="M41.4292 37.6036V38.5571C41.4292 39.6894 40.5086 40.6131 39.38 40.6131H28.3025C27.174 40.6131 26.2534 39.6894 26.2534 38.5571V37.6036C26.2534 36.4713 27.174 35.5476 28.3025 35.5476H39.38C40.5086 35.5476 41.4292 36.4713 41.4292 37.6036Z" fill="#30566C"/>
<path opacity="0.6" d="M23.5211 37.6036V38.5571C23.5211 39.6894 22.6005 40.6131 21.4719 40.6131H15.2947C14.1661 40.6131 13.2455 39.6894 13.2455 38.5571V37.6036C13.2455 36.4713 14.1661 35.5476 15.2947 35.5476H21.4719C22.6005 35.5476 23.5211 36.4713 23.5211 37.6036Z" fill="#30566C"/>
<path opacity="0.7" d="M53.5759 24.8804V25.8339C53.5759 26.9661 52.6552 27.8898 51.5267 27.8898H38.6079C37.4794 27.8898 36.5587 26.9661 36.5587 25.8339V24.8804C36.5587 23.7481 37.4794 22.8244 38.6079 22.8244H51.5267C52.6552 22.8244 53.5759 23.7481 53.5759 24.8804Z" fill="#30566C"/>
<path d="M34.1531 24.8804V25.8339C34.1531 26.9661 33.2325 27.8898 32.1039 27.8898H28.3025C27.174 27.8898 26.2534 26.9661 26.2534 25.8339V24.8804C26.2534 23.7481 27.174 22.8244 28.3025 22.8244H32.1039C33.2325 22.8244 34.1531 23.7481 34.1531 24.8804Z" fill="#30566C"/>
<path opacity="0.5" d="M23.5211 24.8804V25.8339C23.5211 26.9661 22.6005 27.8898 21.4719 27.8898H15.2947C14.1661 27.8898 13.2455 26.9661 13.2455 25.8339V24.8804C13.2455 23.7481 14.1661 22.8244 15.2947 22.8244H21.4719C22.6005 22.8244 23.5211 23.7481 23.5211 24.8804Z" fill="#30566C"/>
<path opacity="0.6" d="M46.478 49.4627V50.4162C46.478 51.5485 45.5573 52.4722 44.4288 52.4722H34.7174C33.5889 52.4722 32.6682 51.5485 32.6682 50.4162V49.4627C32.6682 48.3305 33.5889 47.4068 34.7174 47.4068H44.4288C45.5573 47.4068 46.478 48.3305 46.478 49.4627Z" fill="#30566C"/>
<path opacity="0.7" d="M53.5759 49.4627V50.4162C53.5759 51.5485 52.6552 52.4722 51.5267 52.4722H50.3091C49.1805 52.4722 48.2599 51.5485 48.2599 50.4162V49.4627C48.2599 48.3305 49.1805 47.4068 50.3091 47.4068H51.5267C52.6552 47.4068 53.5759 48.3305 53.5759 49.4627Z" fill="#30566C"/>
<path d="M53.5759 12.6339V13.5874C53.5759 14.7196 52.6552 15.6433 51.5267 15.6433H15.2947C14.1661 15.6433 13.2455 14.7196 13.2455 13.5874V12.6339C13.2455 11.5016 14.1661 10.5779 15.2947 10.5779H51.5267C52.6552 10.5779 53.5759 11.5016 53.5759 12.6339Z" fill="#30566C"/>
</g>
<defs>
<clipPath id="clip0_731_2">
<rect width="64" height="66" fill="white"/>
</clipPath>
</defs>
</svg>
